<svg width="326" height="119" viewBox="0 0 326 119" fill="none" xmlns="http://www.w3.org/2000/svg">
<path d="M41.4318 17.1591C40 6.81818 32.0455 0.81818 21.7273 0.81818C9.56818 0.81818 0.409091 9.68182 0.409091 24.7273C0.409091 39.75 9.45455 48.6364 21.7273 48.6364C32.7955 48.6364 40.1364 41.4773 41.4318 32.5909L32.9318 32.5455C31.8636 38 27.4091 41.0682 21.8409 41.0682C14.2955 41.0682 8.88636 35.4091 8.88636 24.7273C8.88636 14.2273 14.25 8.38636 21.8636 8.38636C27.5227 8.38636 31.9545 11.5909 32.9318 17.1591H41.4318ZM90.7443 24.7273C90.7443 9.68182 81.5625 0.81818 69.358 0.81818C57.1307 0.81818 47.9716 9.68182 47.9716 24.7273C47.9716 39.75 57.1307 48.6364 69.358 48.6364C81.5625 48.6364 90.7443 39.7727 90.7443 24.7273ZM82.267 24.7273C82.267 35.3182 76.9489 41.0682 69.358 41.0682C61.7898 41.0682 56.4489 35.3182 56.4489 24.7273C56.4489 14.1364 61.7898 8.38636 69.358 8.38636C76.9489 8.38636 82.267 14.1364 82.267 24.7273ZM98.7159 1.45454V48H106.807V15.9545H107.239L120.102 47.8636H126.148L139.011 16.0227H139.443V48H147.534V1.45454H137.216L123.398 35.1818H122.852L109.034 1.45454H98.7159ZM156.716 48H165.148V32.2727H174.057C184.807 32.2727 190.58 25.8182 190.58 16.8636C190.58 7.97727 184.875 1.45454 174.17 1.45454H156.716V48ZM165.148 25.3409V8.5H172.875C179.193 8.5 181.989 11.9091 181.989 16.8636C181.989 21.8182 179.193 25.3409 172.92 25.3409H165.148ZM198.693 48L202.534 36.5227H220.034L223.898 48H232.898L216.489 1.45454H206.08L189.693 48H198.693ZM204.807 29.75L211.102 11H211.466L217.761 29.75H204.807ZM277.278 1.45454H268.892V33.1818H268.483L246.574 1.45454H239.028V48H247.46V16.2955H247.847L269.778 48H277.278V1.45454ZM283.284 1.45454L300.216 30.6364V48H308.625V30.6364L325.557 1.45454H316.034L304.648 22.0455H304.193L292.807 1.45454H283.284ZM41.4318 87.1591C40 76.8182 32.0455 70.8182 21.7273 70.8182C9.56818 70.8182 0.409091 79.6818 0.409091 94.7273C0.409091 109.75 9.45455 118.636 21.7273 118.636C32.7955 118.636 40.1364 111.477 41.4318 102.591L32.9318 102.545C31.8636 108 27.4091 111.068 21.8409 111.068C14.2955 111.068 8.88636 105.409 8.88636 94.7273C8.88636 84.2273 14.25 78.3864 21.8636 78.3864C27.5227 78.3864 31.9545 81.5909 32.9318 87.1591H41.4318ZM78.4943 71.4545V101.159C78.4943 107 74.4261 111.182 68.0398 111.182C61.6307 111.182 57.5852 107 57.5852 101.159V71.4545H49.1534V101.864C49.1534 111.864 56.6534 118.705 68.0398 118.705C79.3807 118.705 86.9261 111.864 86.9261 101.864V71.4545H78.4943ZM96.0909 118H125.023V110.932H104.523V71.4545H96.0909V118ZM124.358 78.5227H138.744V118H147.108V78.5227H161.494V71.4545H124.358V78.5227ZM197.994 71.4545V101.159C197.994 107 193.926 111.182 187.54 111.182C181.131 111.182 177.085 107 177.085 101.159V71.4545H168.653V101.864C168.653 111.864 176.153 118.705 187.54 118.705C198.881 118.705 206.426 111.864 206.426 101.864V71.4545H197.994ZM215.591 118H224.023V100.955H232.614L241.75 118H251.159L241.091 99.5455C246.568 97.3409 249.455 92.6591 249.455 86.3409C249.455 77.4545 243.727 71.4545 233.045 71.4545H215.591V118ZM224.023 93.9545V78.5H231.75C238.045 78.5 240.864 81.3864 240.864 86.3409C240.864 91.2955 238.045 93.9545 231.795 93.9545H224.023ZM257.216 118H287.67V110.932H265.648V98.2273H285.92V91.1591H265.648V78.5227H287.489V71.4545H257.216V118Z" fill="black"/>
</svg>
